<?xml version="1.0" encoding="utf-8"?>
<!-- Generator: Adobe Illustrator 19.0.0, SVG Export Plug-In . SVG Version: 6.00 Build 0)  -->
<svg version="1.1" id="Layer_1" xmlns="http://www.w3.org/2000/svg" xmlns:xlink="http://www.w3.org/1999/xlink" x="0px" y="0px"
	 viewBox="0 0 396 108" enable-background="new 0 0 396 108" xml:space="preserve">
<g>
	<g>
		<rect x="96.1" y="96.3" fill="#FFFFFF" width="2" height="2"/>
		<rect x="84.1" y="96.3" fill="#FFFFFF" width="2" height="2"/>
		<rect x="48.1" y="96.3" fill="#FFFFFF" width="2" height="2"/>
		<rect x="60.1" y="96.3" fill="#FFFFFF" width="2" height="2"/>
		<rect x="72.1" y="96.3" fill="#FFFFFF" width="2" height="2"/>
		<rect x="36.1" y="96.3" fill="#FFFFFF" width="2" height="2"/>
		<rect x="24.1" y="96.3" fill="#FFFFFF" width="2" height="2"/>
		<rect x="12.1" y="96.3" fill="#FFFFFF" width="2" height="2"/>
		<g>
			<g>
				<g>
					<path fill="#FFFFFF" d="M60.1,58h2.3v6.4h-2.3V58z"/>
				</g>
				<g>
					<path fill="#FFFFFF" d="M70.2,58h2.2l2.1,3.5h0.1c-0.1-0.5-0.2-1.1-0.2-1.6V58h2.2v6.4h-2.2l-2-3.3h-0.1
						c0.1,0.4,0.1,0.9,0.1,1.3v2.1h-2.2V58z"/>
				</g>
				<g>
					<path fill="#FFFFFF" d="M83.5,62.1l0.1,0.1c0.4,0.3,0.9,0.6,1.4,0.6c0.2,0,0.6-0.1,0.6-0.4c0-0.3-0.3-0.3-0.5-0.4l-0.5-0.1
						c-0.9-0.2-1.7-0.7-1.7-1.7c0-1.5,1.4-2.4,2.8-2.4c0.7,0,1.4,0.2,2,0.6l-0.6,1.6c-0.4-0.3-0.8-0.5-1.3-0.5
						c-0.2,0-0.5,0.1-0.5,0.3c0,0.2,0.3,0.3,0.5,0.3l0.5,0.1c1,0.2,1.7,0.7,1.7,1.8c0,1.5-1.4,2.3-2.8,2.3c-0.8,0-1.7-0.2-2.5-0.6
						L83.5,62.1z"/>
				</g>
				<g>
					<path fill="#FFFFFF" d="M95.2,58h4.9V60L98.8,60v4.4h-2.3V60L95.2,60V58z"/>
				</g>
				<g>
					<path fill="#FFFFFF" d="M108.1,58h2.3v6.4h-2.3V58z"/>
				</g>
				<g>
					<path fill="#FFFFFF" d="M118.7,58h4.9V60l-1.3-0.1v4.4H120V60l-1.3,0.1V58z"/>
				</g>
				<g>
					<path fill="#FFFFFF" d="M136.5,58v3.8c0,1.9-1.2,2.7-3,2.7c-1.8,0-2.9-0.8-2.9-2.7V58h2.3v3.6c0,0.5,0,0.9,0.6,0.9
						c0.6,0,0.6-0.4,0.6-0.9V58H136.5z"/>
				</g>
				<g>
					<path fill="#FFFFFF" d="M142.7,58h4.9V60l-1.3-0.1v4.4h-2.3V60l-1.3,0.1V58z"/>
				</g>
				<g>
					<path fill="#FFFFFF" d="M155.1,58h4.3v1.7h-2v0.6h1.8V62h-1.8v0.6h2v1.7h-4.4V58z"/>
				</g>
			</g>
			<g>
				<g>
					<path fill="#00AEEF" d="M62.5,31v11.4c0,5.6-3.5,8.2-8.9,8.2c-5.4,0-8.9-2.6-8.9-8.2V31h7v10.8c0,1.5,0.1,2.8,1.9,2.8
						s1.9-1.3,1.9-2.8V31H62.5z"/>
				</g>
				<g>
					<path fill="#00AEEF" d="M69.8,31h8.5c4.4,0,8,1.8,8,6.7c0,2.9-1.1,4.2-3.7,5v0.2c0.4,0.3,0.8,0.6,1.2,1.2l4.2,6.3h-8.1
						l-3.1-6.2h-0.1v6.2h-6.9V31z M76.7,39.6h0.5c1.2,0,2.3-0.2,2.3-1.6c0-1.5-1.1-1.7-2.3-1.7h-0.5V39.6z"/>
				</g>
				<g>
					<path fill="#00AEEF" d="M93.3,31h8.2c3.7,0,7.6,0.9,7.6,5.4c0,1.7-0.8,3.4-2.5,3.9v0.2c2.1,0.7,3.4,2.3,3.4,4.6
						c0,4-3.7,5.3-7.1,5.3h-9.6V31z M100.5,38.5c1,0,2.2-0.1,2.2-1.4c0-1.4-1.3-1.3-2.3-1.3h-0.5v2.8H100.5z M99.8,45.7h0.8
						c1.2,0,2.8,0,2.8-1.6c0-1.6-1.8-1.6-2.9-1.6h-0.7V45.7z"/>
				</g>
				<g>
					<path fill="#00AEEF" d="M121.4,50.3H114l6.7-19.3h7.8l6.9,19.3h-7.4l-0.6-2.4H122L121.4,50.3z M126.1,43.4l-0.8-3.4
						c-0.2-0.8-0.3-1.7-0.5-2.5h-0.3l-1.3,5.9H126.1z"/>
				</g>
				<g>
					<path fill="#00AEEF" d="M140,31h6.7l6.3,10.7h0.2c-0.3-1.6-0.6-3.3-0.6-4.9V31h6.7v19.3h-6.7l-6.2-10.2h-0.2
						c0.2,1.3,0.4,2.6,0.4,3.9v6.3H140V31z"/>
				</g>
			</g>
			<g>
				<rect x="84.1" y="24.3" fill="#FFFFFF" width="2" height="2"/>
				<rect x="96.1" y="24.3" fill="#FFFFFF" width="2" height="2"/>
				<rect x="48.1" y="24.3" fill="#FFFFFF" width="2" height="2"/>
				<rect x="60.1" y="24.3" fill="#FFFFFF" width="2" height="2"/>
				<rect x="72.1" y="24.3" fill="#FFFFFF" width="2" height="2"/>
				<rect x="36.1" y="24.3" fill="#FFFFFF" width="2" height="2"/>
				<rect x="84.1" y="72.3" fill="#FFFFFF" width="2" height="2"/>
				<rect x="96.1" y="72.3" fill="#FFFFFF" width="2" height="2"/>
				<rect x="48.1" y="72.3" fill="#FFFFFF" width="2" height="2"/>
				<rect x="60.1" y="72.3" fill="#FFFFFF" width="2" height="2"/>
				<rect x="72.1" y="72.3" fill="#FFFFFF" width="2" height="2"/>
				<rect x="36.1" y="72.3" fill="#FFFFFF" width="2" height="2"/>
				<rect x="36.1" y="60.3" fill="#FFFFFF" width="2" height="2"/>
				<rect x="36.1" y="48.3" fill="#FFFFFF" width="2" height="2"/>
				<rect x="36.1" y="36.3" fill="#FFFFFF" width="2" height="2"/>
				<rect x="72.1" y="24.3" fill="#FFFFFF" width="2" height="2"/>
				<rect x="84.1" y="24.3" fill="#FFFFFF" width="2" height="2"/>
				<rect x="96.1" y="24.3" fill="#FFFFFF" width="2" height="2"/>
				<rect x="36.1" y="24.3" fill="#FFFFFF" width="2" height="2"/>
				<rect x="48.1" y="24.3" fill="#FFFFFF" width="2" height="2"/>
				<rect x="60.1" y="24.3" fill="#FFFFFF" width="2" height="2"/>
				<rect x="24.1" y="24.3" fill="#FFFFFF" width="2" height="2"/>
				<rect x="24.1" y="72.3" fill="#FFFFFF" width="2" height="2"/>
				<rect x="24.1" y="60.3" fill="#FFFFFF" width="2" height="2"/>
				<rect x="24.1" y="48.3" fill="#FFFFFF" width="2" height="2"/>
				<rect x="24.1" y="36.3" fill="#FFFFFF" width="2" height="2"/>
				<rect x="60.1" y="24.3" fill="#FFFFFF" width="2" height="2"/>
				<rect x="72.1" y="24.3" fill="#FFFFFF" width="2" height="2"/>
				<rect x="84.1" y="24.3" fill="#FFFFFF" width="2" height="2"/>
				<rect x="96.1" y="24.3" fill="#FFFFFF" width="2" height="2"/>
				<rect x="24.1" y="24.3" fill="#FFFFFF" width="2" height="2"/>
				<rect x="36.1" y="24.3" fill="#FFFFFF" width="2" height="2"/>
				<rect x="48.1" y="24.3" fill="#FFFFFF" width="2" height="2"/>
				<rect x="84.1" y="84.3" fill="#FFFFFF" width="2" height="2"/>
				<rect x="96.1" y="84.3" fill="#FFFFFF" width="2" height="2"/>
				<rect x="48.1" y="84.3" fill="#FFFFFF" width="2" height="2"/>
				<rect x="60.1" y="84.3" fill="#FFFFFF" width="2" height="2"/>
				<rect x="72.1" y="84.3" fill="#FFFFFF" width="2" height="2"/>
				<rect x="36.1" y="84.3" fill="#FFFFFF" width="2" height="2"/>
				<rect x="24.1" y="84.3" fill="#FFFFFF" width="2" height="2"/>
				<rect x="12.1" y="24.3" fill="#FFFFFF" width="2" height="2"/>
				<rect x="12.1" y="72.3" fill="#FFFFFF" width="2" height="2"/>
				<rect x="12.1" y="84.3" fill="#FFFFFF" width="2" height="2"/>
				<rect x="12.1" y="60.3" fill="#FFFFFF" width="2" height="2"/>
				<rect x="12.1" y="48.3" fill="#FFFFFF" width="2" height="2"/>
				<rect x="12.1" y="36.3" fill="#FFFFFF" width="2" height="2"/>
				<rect x="48.1" y="60.3" fill="#FFFFFF" width="2" height="2"/>
				<g>
					<rect x="84.1" y="12.3" fill="#FFFFFF" width="2" height="2"/>
					<rect x="96.1" y="12.3" fill="#FFFFFF" width="2" height="2"/>
					<rect x="48.1" y="12.3" fill="#FFFFFF" width="2" height="2"/>
					<rect x="60.1" y="12.3" fill="#FFFFFF" width="2" height="2"/>
					<rect x="72.1" y="12.3" fill="#FFFFFF" width="2" height="2"/>
					<rect x="36.1" y="12.3" fill="#FFFFFF" width="2" height="2"/>
					<rect x="24.1" y="12.3" fill="#FFFFFF" width="2" height="2"/>
					<rect x="12.1" y="12.3" fill="#FFFFFF" width="2" height="2"/>
				</g>
			</g>
		</g>
	</g>
	<g>
		<g>
			<path fill="#636466" d="M179,58h4.3v1.7h-2v0.6h1.8V62h-1.8v0.6h2v1.7H179V58z"/>
		</g>
		<g>
			<path fill="#636466" d="M191.6,58h2.3v4.3h1.9v2h-4.3V58z"/>
		</g>
		<g>
			<path fill="#636466" d="M203.2,58h4.3v1.7h-2v0.6h1.8V62h-1.8v0.6h2v1.7h-4.4V58z"/>
		</g>
		<g>
			<path fill="#636466" d="M250.8,58h4.3v1.7h-2v0.6h1.8V62h-1.8v0.6h2v1.7h-4.4V58z"/>
		</g>
		<g>
			<path fill="#636466" d="M221.2,58l-2.5,6.4h-2l-2.5-6.4h2.4l0.8,2.9c0.1,0.3,0.2,0.6,0.2,0.9h0.1c0-0.3,0.1-0.6,0.2-0.9l0.8-2.9
				H221.2z"/>
		</g>
		<g>
			<path fill="#636466" d="M228.5,64.3H226l2.2-6.4h2.6l2.3,6.4h-2.5l-0.2-0.8h-1.8L228.5,64.3z M230,62l-0.3-1.1
				c-0.1-0.3-0.1-0.5-0.2-0.8h-0.1l-0.4,1.9H230z"/>
		</g>
		<g>
			<path fill="#636466" d="M238.7,58h4.9V60l-1.3-0.1v4.4h-2.3V60l-1.3,0.1V58z"/>
		</g>
		<g>
			<path fill="#636466" d="M322.6,58h2.4c2.1,0,3.8,0.9,3.8,3.3c0,1.9-1.3,3.1-3.2,3.1h-2.9V58z M324.9,62.4h0.1
				c0.8,0,1.4-0.4,1.4-1.2c0-0.9-0.5-1.3-1.4-1.3h-0.1V62.4z"/>
		</g>
		<g>
			<path fill="#636466" d="M335.2,58h4.3v1.7h-2v0.6h1.8V62h-1.8v0.6h2v1.7h-4.4V58z"/>
		</g>
		<g>
			<path fill="#636466" d="M382.8,58h4.3v1.7h-2v0.6h1.8V62h-1.8v0.6h2v1.7h-4.4V58z"/>
		</g>
		<g>
			<path fill="#636466" d="M346.8,58h2.7c1.2,0,2.5,0.3,2.5,1.8c0,0.6-0.3,1.1-0.8,1.3v0.1c0.7,0.2,1.1,0.8,1.1,1.5
				c0,1.3-1.2,1.8-2.3,1.8h-3.2V58z M349.2,60.4c0.3,0,0.7,0,0.7-0.5c0-0.5-0.4-0.4-0.8-0.4H349v0.9H349.2z M349,62.8h0.3
				c0.4,0,0.9,0,0.9-0.5c0-0.5-0.6-0.5-1-0.5H349V62.8z"/>
		</g>
		<g>
			<path fill="#636466" d="M360.5,64.3H358l2.2-6.4h2.6l2.3,6.4h-2.5l-0.2-0.8h-1.8L360.5,64.3z M362,62l-0.3-1.1
				c-0.1-0.3-0.1-0.5-0.2-0.8h-0.1l-0.4,1.9H362z"/>
		</g>
		<g>
			<path fill="#636466" d="M370.6,58h4.9V60l-1.3-0.1v4.4h-2.3V60l-1.3,0.1V58z"/>
		</g>
		<rect x="312.1" y="60.3" fill="#636466" width="2" height="2"/>
		<g>
			<path fill="#636466" d="M275.2,58h4.9V60l-1.3-0.1v4.4h-2.3V60l-1.3,0.1V58z"/>
		</g>
		<g>
			<path fill="#636466" d="M286.5,58h2.2v2.1h1.4V58h2.2v6.4h-2.2v-2.2h-1.4v2.2h-2.2V58z"/>
		</g>
		<g>
			<path fill="#636466" d="M298.8,58h4.3v1.7h-2v0.6h1.8V62h-1.8v0.6h2v1.7h-4.4V58z"/>
		</g>
		<rect x="264.1" y="60.3" fill="#636466" width="2" height="2"/>
		<rect x="168.1" y="60.3" fill="#636466" width="2" height="2"/>
		<rect x="168.1" y="60.3" fill="#636466" width="2" height="2"/>
		<rect x="264.1" y="60.3" fill="#636466" width="2" height="2"/>
		<rect x="312.1" y="60.3" fill="#636466" width="2" height="2"/>
	</g>
</g>
</svg>
